# xmcd
#
# Track frame offsets: 
#        150
#        24394
#        42468
#        59490
#        79507
#        103412
#        118440
#        132901
#        158222
#        222472
#
# Disc length: 3610 seconds
#
# Revision: 0
# Processed by: cddbd v1.5PL3 Copyright (c) Steve Scherf et al.
# Submitted via: ExactAudioCopy v0.90b4
#
DISCID=940e180a
DTITLE=Knut Reisersud, Hans Fredrik Jacobsen, Vajra - Himalaya Blues
DYEAR=2004
DGENRE=Blues
TTITLE0=Kuvisa/Gothald
TTITLE1=Morning song/Byanchuli
TTITLE2=Mother Himalaya/Himalaya mata
TTITLE3=Sylvartun
TTITLE4=Shangri-La
TTITLE5=Loknes
TTITLE6=Ballad of the sad young tigers/Jawan Bagha Kobyatha
TTITLE7=Golden lap/Lunhiti
TTITLE8=Himalaya blues (Around the jungle/Ben Bihar)
TTITLE9=Himalaya blues video version
EXTD=
EXTT0=
EXTT1=
EXTT2=
EXTT3=
EXTT4=
EXTT5=
EXTT6=
EXTT7=
EXTT8=
EXTT9=
PLAYORDER=
